<mxfile host="app.diagrams.net" modified="2022-11-25T09:44:14.411Z" agent="5.0 (Windows)" etag="QsGNTH0KSq1V2Y2nE4Zm" version="20.6.0" type="github">
  <diagram name="Page-1" id="13e1069c-82ec-6db2-03f1-153e76fe0fe0">
    <mxGraphModel dx="1038" dy="660" grid="1" gridSize="10" guides="1" tooltips="1" connect="1" arrows="1" fold="1" page="1" pageScale="1" pageWidth="1100" pageHeight="850" background="none" math="0" shadow="0">
      <root>
        <mxCell id="0" />
        <mxCell id="1" parent="0" />
        <mxCell id="7baba1c4bc27f4b0-2" value=":VideoPlugin" style="shape=umlLifeline;perimeter=lifelinePerimeter;whiteSpace=wrap;html=1;container=1;collapsible=0;recursiveResize=0;outlineConnect=0;rounded=1;shadow=0;comic=0;labelBackgroundColor=none;strokeWidth=1;fontFamily=Verdana;fontSize=12;align=center;" parent="1" vertex="1">
          <mxGeometry x="240" y="80" width="100" height="840" as="geometry" />
        </mxCell>
        <mxCell id="7baba1c4bc27f4b0-10" value="" style="html=1;points=[];perimeter=orthogonalPerimeter;rounded=0;shadow=0;comic=0;labelBackgroundColor=none;strokeWidth=1;fontFamily=Verdana;fontSize=12;align=center;" parent="7baba1c4bc27f4b0-2" vertex="1">
          <mxGeometry x="45" y="50" width="10" height="520" as="geometry" />
        </mxCell>
        <mxCell id="obsWLM1qKGEnBxRgLEz3-16" value="new surfaceTexture(UnityTexIPtr)" style="curved=1;endArrow=classic;html=1;rounded=0;exitX=0.6;exitY=0.275;exitDx=0;exitDy=0;exitPerimeter=0;" parent="7baba1c4bc27f4b0-2" edge="1">
          <mxGeometry width="50" height="50" relative="1" as="geometry">
            <mxPoint x="52" y="221" as="sourcePoint" />
            <mxPoint x="51" y="260" as="targetPoint" />
            <Array as="points">
              <mxPoint x="101" y="250" />
            </Array>
          </mxGeometry>
        </mxCell>
        <mxCell id="obsWLM1qKGEnBxRgLEz3-26" value="" style="curved=1;endArrow=classic;html=1;rounded=0;exitX=0.4;exitY=0.493;exitDx=0;exitDy=0;exitPerimeter=0;entryX=0.1;entryY=0.548;entryDx=0;entryDy=0;entryPerimeter=0;" parent="7baba1c4bc27f4b0-2" source="7baba1c4bc27f4b0-10" target="7baba1c4bc27f4b0-10" edge="1">
          <mxGeometry width="50" height="50" relative="1" as="geometry">
            <mxPoint x="300" y="310" as="sourcePoint" />
            <mxPoint x="150" y="330" as="targetPoint" />
            <Array as="points">
              <mxPoint x="100" y="330" />
            </Array>
          </mxGeometry>
        </mxCell>
        <mxCell id="obsWLM1qKGEnBxRgLEz3-27" value="initMediaPlayer()" style="edgeLabel;html=1;align=center;verticalAlign=middle;resizable=0;points=[];" parent="obsWLM1qKGEnBxRgLEz3-26" vertex="1" connectable="0">
          <mxGeometry x="0.6938" y="-1" relative="1" as="geometry">
            <mxPoint x="48" y="-7" as="offset" />
          </mxGeometry>
        </mxCell>
        <mxCell id="obsWLM1qKGEnBxRgLEz3-30" value="" style="curved=1;endArrow=classic;html=1;rounded=0;exitX=0.3;exitY=0.661;exitDx=0;exitDy=0;exitPerimeter=0;entryX=0.3;entryY=0.702;entryDx=0;entryDy=0;entryPerimeter=0;" parent="7baba1c4bc27f4b0-2" source="7baba1c4bc27f4b0-10" target="7baba1c4bc27f4b0-10" edge="1">
          <mxGeometry width="50" height="50" relative="1" as="geometry">
            <mxPoint x="110" y="420" as="sourcePoint" />
            <mxPoint x="90" y="400" as="targetPoint" />
            <Array as="points">
              <mxPoint x="100" y="400" />
            </Array>
          </mxGeometry>
        </mxCell>
        <mxCell id="obsWLM1qKGEnBxRgLEz3-31" value="updateTexImage() (from media&lt;br&gt;Player to mSurface and OES)" style="edgeLabel;html=1;align=center;verticalAlign=middle;resizable=0;points=[];" parent="obsWLM1qKGEnBxRgLEz3-30" vertex="1" connectable="0">
          <mxGeometry x="0.6701" y="-1" relative="1" as="geometry">
            <mxPoint x="65" y="-20" as="offset" />
          </mxGeometry>
        </mxCell>
        <mxCell id="SwqvhMLeM1HwQ16TBO-z-4" value="CreateInstance()" style="html=1;verticalAlign=bottom;endArrow=block;labelBackgroundColor=none;fontFamily=Verdana;fontSize=12;edgeStyle=elbowEdgeStyle;elbow=vertical;" parent="7baba1c4bc27f4b0-2" edge="1">
          <mxGeometry x="-0.0062" relative="1" as="geometry">
            <mxPoint x="-96" y="70.11999999999989" as="sourcePoint" />
            <mxPoint x="45" y="70" as="targetPoint" />
            <Array as="points">
              <mxPoint x="-26" y="70" />
            </Array>
            <mxPoint as="offset" />
          </mxGeometry>
        </mxCell>
        <mxCell id="7baba1c4bc27f4b0-3" value=":UnityEngine" style="shape=umlLifeline;perimeter=lifelinePerimeter;whiteSpace=wrap;html=1;container=1;collapsible=0;recursiveResize=0;outlineConnect=0;rounded=1;shadow=0;comic=0;labelBackgroundColor=none;strokeWidth=1;fontFamily=Verdana;fontSize=12;align=center;" parent="1" vertex="1">
          <mxGeometry x="400" y="80" width="100" height="580" as="geometry" />
        </mxCell>
        <mxCell id="7baba1c4bc27f4b0-13" value="" style="html=1;points=[];perimeter=orthogonalPerimeter;rounded=0;shadow=0;comic=0;labelBackgroundColor=none;strokeWidth=1;fontFamily=Verdana;fontSize=12;align=center;" parent="7baba1c4bc27f4b0-3" vertex="1">
          <mxGeometry x="45" y="50" width="10" height="480" as="geometry" />
        </mxCell>
        <mxCell id="7baba1c4bc27f4b0-4" value=":FBOUtils" style="shape=umlLifeline;perimeter=lifelinePerimeter;whiteSpace=wrap;html=1;container=1;collapsible=0;recursiveResize=0;outlineConnect=0;rounded=1;shadow=0;comic=0;labelBackgroundColor=none;strokeWidth=1;fontFamily=Verdana;fontSize=12;align=center;" parent="1" vertex="1">
          <mxGeometry x="540" y="80" width="100" height="580" as="geometry" />
        </mxCell>
        <mxCell id="7baba1c4bc27f4b0-5" value=":FilterFBOTexture" style="shape=umlLifeline;perimeter=lifelinePerimeter;whiteSpace=wrap;html=1;container=1;collapsible=0;recursiveResize=0;outlineConnect=0;rounded=1;shadow=0;comic=0;labelBackgroundColor=none;strokeWidth=1;fontFamily=Verdana;fontSize=12;align=center;" parent="1" vertex="1">
          <mxGeometry x="680" y="80" width="100" height="580" as="geometry" />
        </mxCell>
        <mxCell id="7baba1c4bc27f4b0-6" value=":Object" style="shape=umlLifeline;perimeter=lifelinePerimeter;whiteSpace=wrap;html=1;container=1;collapsible=0;recursiveResize=0;outlineConnect=0;rounded=1;shadow=0;comic=0;labelBackgroundColor=none;strokeWidth=1;fontFamily=Verdana;fontSize=12;align=center;" parent="1" vertex="1">
          <mxGeometry x="820" y="80" width="100" height="580" as="geometry" />
        </mxCell>
        <mxCell id="7baba1c4bc27f4b0-7" value=":Object" style="shape=umlLifeline;perimeter=lifelinePerimeter;whiteSpace=wrap;html=1;container=1;collapsible=0;recursiveResize=0;outlineConnect=0;rounded=1;shadow=0;comic=0;labelBackgroundColor=none;strokeWidth=1;fontFamily=Verdana;fontSize=12;align=center;" parent="1" vertex="1">
          <mxGeometry x="960" y="80" width="100" height="580" as="geometry" />
        </mxCell>
        <mxCell id="7baba1c4bc27f4b0-8" value=":Main.cs" style="shape=umlLifeline;perimeter=lifelinePerimeter;whiteSpace=wrap;html=1;container=1;collapsible=0;recursiveResize=0;outlineConnect=0;rounded=1;shadow=0;comic=0;labelBackgroundColor=none;strokeWidth=1;fontFamily=Verdana;fontSize=12;align=center;" parent="1" vertex="1">
          <mxGeometry x="100" y="80" width="100" height="840" as="geometry" />
        </mxCell>
        <mxCell id="7baba1c4bc27f4b0-9" value="" style="html=1;points=[];perimeter=orthogonalPerimeter;rounded=0;shadow=0;comic=0;labelBackgroundColor=none;strokeWidth=1;fontFamily=Verdana;fontSize=12;align=center;" parent="7baba1c4bc27f4b0-8" vertex="1">
          <mxGeometry x="45" y="100" width="10" height="160" as="geometry" />
        </mxCell>
        <mxCell id="obsWLM1qKGEnBxRgLEz3-5" value="new Texture2D()" style="curved=1;endArrow=classic;html=1;rounded=0;exitX=0.2;exitY=0.066;exitDx=0;exitDy=0;exitPerimeter=0;entryX=0.2;entryY=0.125;entryDx=0;entryDy=0;entryPerimeter=0;" parent="7baba1c4bc27f4b0-8" source="7baba1c4bc27f4b0-9" target="7baba1c4bc27f4b0-9" edge="1">
          <mxGeometry x="0.0806" y="24" width="50" height="50" relative="1" as="geometry">
            <mxPoint x="160" y="280" as="sourcePoint" />
            <mxPoint x="210" y="230" as="targetPoint" />
            <Array as="points">
              <mxPoint x="80" y="90" />
              <mxPoint x="90" y="140" />
            </Array>
            <mxPoint as="offset" />
          </mxGeometry>
        </mxCell>
        <mxCell id="obsWLM1qKGEnBxRgLEz3-13" value="" style="html=1;points=[];perimeter=orthogonalPerimeter;rounded=0;shadow=0;comic=0;labelBackgroundColor=none;strokeWidth=1;fontFamily=Verdana;fontSize=12;align=center;" parent="7baba1c4bc27f4b0-8" vertex="1">
          <mxGeometry x="45" y="310" width="10" height="230" as="geometry" />
        </mxCell>
        <mxCell id="SwqvhMLeM1HwQ16TBO-z-1" value="" style="html=1;points=[];perimeter=orthogonalPerimeter;rounded=0;shadow=0;comic=0;labelBackgroundColor=none;strokeWidth=1;fontFamily=Verdana;fontSize=12;align=center;" parent="7baba1c4bc27f4b0-8" vertex="1">
          <mxGeometry x="45" y="50" width="10" height="30" as="geometry" />
        </mxCell>
        <mxCell id="SwqvhMLeM1HwQ16TBO-z-2" value="" style="endArrow=classic;html=1;rounded=0;" parent="7baba1c4bc27f4b0-8" edge="1">
          <mxGeometry relative="1" as="geometry">
            <mxPoint x="-90" y="60" as="sourcePoint" />
            <mxPoint x="50" y="60" as="targetPoint" />
          </mxGeometry>
        </mxCell>
        <mxCell id="SwqvhMLeM1HwQ16TBO-z-3" value="Awake()" style="edgeLabel;resizable=0;html=1;align=center;verticalAlign=middle;" parent="SwqvhMLeM1HwQ16TBO-z-2" connectable="0" vertex="1">
          <mxGeometry relative="1" as="geometry" />
        </mxCell>
        <mxCell id="7baba1c4bc27f4b0-16" value="" style="html=1;points=[];perimeter=orthogonalPerimeter;rounded=0;shadow=0;comic=0;labelBackgroundColor=none;strokeWidth=1;fontFamily=Verdana;fontSize=12;align=center;" parent="1" vertex="1">
          <mxGeometry x="585" y="180" width="10" height="380" as="geometry" />
        </mxCell>
        <mxCell id="7baba1c4bc27f4b0-19" value="" style="html=1;points=[];perimeter=orthogonalPerimeter;rounded=0;shadow=0;comic=0;labelBackgroundColor=none;strokeWidth=1;fontFamily=Verdana;fontSize=12;align=center;" parent="1" vertex="1">
          <mxGeometry x="725" y="210" width="10" height="380" as="geometry" />
        </mxCell>
        <mxCell id="7baba1c4bc27f4b0-25" value="" style="html=1;points=[];perimeter=orthogonalPerimeter;rounded=0;shadow=0;comic=0;labelBackgroundColor=none;strokeColor=#000000;strokeWidth=1;fillColor=#FFFFFF;fontFamily=Verdana;fontSize=12;fontColor=#000000;align=center;" parent="1" vertex="1">
          <mxGeometry x="1005" y="460" width="10" height="30" as="geometry" />
        </mxCell>
        <mxCell id="7baba1c4bc27f4b0-28" value="" style="html=1;points=[];perimeter=orthogonalPerimeter;rounded=0;shadow=0;comic=0;labelBackgroundColor=none;strokeWidth=1;fontFamily=Verdana;fontSize=12;align=center;" parent="1" vertex="1">
          <mxGeometry x="870" y="550" width="10" height="60" as="geometry" />
        </mxCell>
        <mxCell id="7baba1c4bc27f4b0-11" value="updateTexture()" style="html=1;verticalAlign=bottom;endArrow=block;entryX=0.8;entryY=0.627;labelBackgroundColor=none;fontFamily=Verdana;fontSize=12;edgeStyle=elbowEdgeStyle;elbow=vertical;entryDx=0;entryDy=0;entryPerimeter=0;" parent="1" source="7baba1c4bc27f4b0-8" target="7baba1c4bc27f4b0-10" edge="1">
          <mxGeometry relative="1" as="geometry">
            <mxPoint x="50" y="400" as="sourcePoint" />
          </mxGeometry>
        </mxCell>
        <mxCell id="7baba1c4bc27f4b0-14" value="invalidateState()" style="html=1;verticalAlign=bottom;endArrow=block;labelBackgroundColor=none;fontFamily=Verdana;fontSize=12;edgeStyle=elbowEdgeStyle;elbow=vertical;entryX=0.5;entryY=0.947;entryDx=0;entryDy=0;entryPerimeter=0;" parent="1" source="7baba1c4bc27f4b0-8" target="7baba1c4bc27f4b0-13" edge="1">
          <mxGeometry relative="1" as="geometry">
            <mxPoint x="370" y="200" as="sourcePoint" />
          </mxGeometry>
        </mxCell>
        <mxCell id="7baba1c4bc27f4b0-40" value="Uniy c#" style="shape=note;whiteSpace=wrap;html=1;size=14;verticalAlign=top;align=left;spacingTop=-6;rounded=0;shadow=0;comic=0;labelBackgroundColor=none;strokeWidth=1;fontFamily=Verdana;fontSize=12" parent="1" vertex="1">
          <mxGeometry x="100" y="30" width="100" height="35" as="geometry" />
        </mxCell>
        <mxCell id="7baba1c4bc27f4b0-41" value="java module" style="shape=note;whiteSpace=wrap;html=1;size=14;verticalAlign=top;align=left;spacingTop=-6;rounded=0;shadow=0;comic=0;labelBackgroundColor=none;strokeWidth=1;fontFamily=Verdana;fontSize=12" parent="1" vertex="1">
          <mxGeometry x="240" y="30" width="100" height="35" as="geometry" />
        </mxCell>
        <mxCell id="7baba1c4bc27f4b0-42" value="Note" style="shape=note;whiteSpace=wrap;html=1;size=14;verticalAlign=top;align=left;spacingTop=-6;rounded=0;shadow=0;comic=0;labelBackgroundColor=none;strokeWidth=1;fontFamily=Verdana;fontSize=12" parent="1" vertex="1">
          <mxGeometry x="400" y="30" width="100" height="35" as="geometry" />
        </mxCell>
        <mxCell id="7baba1c4bc27f4b0-43" value="Generating GLBuffers and returning pointers" style="shape=note;whiteSpace=wrap;html=1;size=14;verticalAlign=top;align=left;spacingTop=-6;rounded=0;shadow=0;comic=0;labelBackgroundColor=none;strokeWidth=1;fontFamily=Verdana;fontSize=12" parent="1" vertex="1">
          <mxGeometry x="540" width="100" height="65" as="geometry" />
        </mxCell>
        <mxCell id="7baba1c4bc27f4b0-44" value="java module" style="shape=note;whiteSpace=wrap;html=1;size=14;verticalAlign=top;align=left;spacingTop=-6;rounded=0;shadow=0;comic=0;labelBackgroundColor=none;strokeWidth=1;fontFamily=Verdana;fontSize=12" parent="1" vertex="1">
          <mxGeometry x="680" y="30" width="100" height="35" as="geometry" />
        </mxCell>
        <mxCell id="7baba1c4bc27f4b0-45" value="Note" style="shape=note;whiteSpace=wrap;html=1;size=14;verticalAlign=top;align=left;spacingTop=-6;rounded=0;shadow=0;comic=0;labelBackgroundColor=none;strokeWidth=1;fontFamily=Verdana;fontSize=12" parent="1" vertex="1">
          <mxGeometry x="820" y="30" width="100" height="35" as="geometry" />
        </mxCell>
        <mxCell id="7baba1c4bc27f4b0-46" value="Note" style="shape=note;whiteSpace=wrap;html=1;size=14;verticalAlign=top;align=left;spacingTop=-6;rounded=0;shadow=0;comic=0;labelBackgroundColor=none;strokeWidth=1;fontFamily=Verdana;fontSize=12" parent="1" vertex="1">
          <mxGeometry x="960" y="30" width="100" height="35" as="geometry" />
        </mxCell>
        <mxCell id="obsWLM1qKGEnBxRgLEz3-3" value="" style="endArrow=classic;html=1;rounded=0;" parent="1" edge="1">
          <mxGeometry width="50" height="50" relative="1" as="geometry">
            <mxPoint x="10" y="190" as="sourcePoint" />
            <mxPoint x="150" y="190" as="targetPoint" />
            <Array as="points">
              <mxPoint x="90" y="190" />
            </Array>
          </mxGeometry>
        </mxCell>
        <mxCell id="obsWLM1qKGEnBxRgLEz3-4" value="Click()" style="edgeLabel;html=1;align=center;verticalAlign=middle;resizable=0;points=[];" parent="obsWLM1qKGEnBxRgLEz3-3" vertex="1" connectable="0">
          <mxGeometry x="0.4" y="-3" relative="1" as="geometry">
            <mxPoint x="-28" as="offset" />
          </mxGeometry>
        </mxCell>
        <mxCell id="obsWLM1qKGEnBxRgLEz3-6" value="start(UnitytexPtr)" style="html=1;verticalAlign=bottom;endArrow=block;labelBackgroundColor=none;fontFamily=Verdana;fontSize=12;edgeStyle=elbowEdgeStyle;elbow=vertical;" parent="1" edge="1">
          <mxGeometry x="-0.0062" relative="1" as="geometry">
            <mxPoint x="150" y="260.12" as="sourcePoint" />
            <mxPoint x="291" y="260" as="targetPoint" />
            <Array as="points">
              <mxPoint x="220" y="260" />
            </Array>
            <mxPoint as="offset" />
          </mxGeometry>
        </mxCell>
        <mxCell id="obsWLM1qKGEnBxRgLEz3-9" value="Texture2D" style="endArrow=classic;html=1;rounded=0;" parent="1" source="7baba1c4bc27f4b0-8" edge="1">
          <mxGeometry relative="1" as="geometry">
            <mxPoint x="-20" y="270" as="sourcePoint" />
            <mxPoint x="10" y="270" as="targetPoint" />
          </mxGeometry>
        </mxCell>
        <mxCell id="obsWLM1qKGEnBxRgLEz3-10" value="Texture2D" style="edgeLabel;resizable=0;html=1;align=center;verticalAlign=middle;" parent="obsWLM1qKGEnBxRgLEz3-9" connectable="0" vertex="1">
          <mxGeometry relative="1" as="geometry" />
        </mxCell>
        <mxCell id="obsWLM1qKGEnBxRgLEz3-11" value="" style="endArrow=classic;html=1;rounded=0;" parent="1" source="7baba1c4bc27f4b0-8" edge="1">
          <mxGeometry relative="1" as="geometry">
            <mxPoint x="-40" y="300" as="sourcePoint" />
            <mxPoint x="10" y="300" as="targetPoint" />
          </mxGeometry>
        </mxCell>
        <mxCell id="obsWLM1qKGEnBxRgLEz3-12" value="Texure2D" style="edgeLabel;resizable=0;html=1;align=center;verticalAlign=middle;" parent="obsWLM1qKGEnBxRgLEz3-11" connectable="0" vertex="1">
          <mxGeometry relative="1" as="geometry" />
        </mxCell>
        <mxCell id="obsWLM1qKGEnBxRgLEz3-14" value="" style="endArrow=classic;html=1;rounded=0;entryX=0.5;entryY=0.329;entryDx=0;entryDy=0;entryPerimeter=0;" parent="1" source="7baba1c4bc27f4b0-2" target="7baba1c4bc27f4b0-4" edge="1">
          <mxGeometry relative="1" as="geometry">
            <mxPoint x="410" y="340" as="sourcePoint" />
            <mxPoint x="510" y="280" as="targetPoint" />
          </mxGeometry>
        </mxCell>
        <mxCell id="obsWLM1qKGEnBxRgLEz3-15" value="CreateOESTextureID()" style="edgeLabel;resizable=0;html=1;align=center;verticalAlign=middle;" parent="obsWLM1qKGEnBxRgLEz3-14" connectable="0" vertex="1">
          <mxGeometry relative="1" as="geometry" />
        </mxCell>
        <mxCell id="obsWLM1qKGEnBxRgLEz3-18" value="" style="endArrow=classic;html=1;rounded=0;entryX=1;entryY=0.306;entryDx=0;entryDy=0;entryPerimeter=0;dashed=1;" parent="1" source="7baba1c4bc27f4b0-4" target="7baba1c4bc27f4b0-10" edge="1">
          <mxGeometry relative="1" as="geometry">
            <mxPoint x="410" y="340" as="sourcePoint" />
            <mxPoint x="510" y="340" as="targetPoint" />
          </mxGeometry>
        </mxCell>
        <mxCell id="obsWLM1qKGEnBxRgLEz3-19" value="OESTexPtr" style="edgeLabel;resizable=0;html=1;align=center;verticalAlign=middle;" parent="obsWLM1qKGEnBxRgLEz3-18" connectable="0" vertex="1">
          <mxGeometry relative="1" as="geometry" />
        </mxCell>
        <mxCell id="obsWLM1qKGEnBxRgLEz3-20" value="" style="endArrow=classic;html=1;rounded=0;entryX=-0.3;entryY=0.367;entryDx=0;entryDy=0;entryPerimeter=0;" parent="1" source="7baba1c4bc27f4b0-2" target="7baba1c4bc27f4b0-19" edge="1">
          <mxGeometry relative="1" as="geometry">
            <mxPoint x="410" y="340" as="sourcePoint" />
            <mxPoint x="510" y="340" as="targetPoint" />
          </mxGeometry>
        </mxCell>
        <mxCell id="obsWLM1qKGEnBxRgLEz3-21" value="new FilterFBOTexture(UnityTexPtr, OESTexPtr)" style="edgeLabel;resizable=0;html=1;align=center;verticalAlign=middle;" parent="obsWLM1qKGEnBxRgLEz3-20" connectable="0" vertex="1">
          <mxGeometry relative="1" as="geometry">
            <mxPoint x="-1" as="offset" />
          </mxGeometry>
        </mxCell>
        <mxCell id="obsWLM1qKGEnBxRgLEz3-22" value="" style="endArrow=classic;html=1;rounded=0;entryX=0.2;entryY=0.535;entryDx=0;entryDy=0;entryPerimeter=0;" parent="1" source="7baba1c4bc27f4b0-5" target="7baba1c4bc27f4b0-16" edge="1">
          <mxGeometry relative="1" as="geometry">
            <mxPoint x="410" y="360" as="sourcePoint" />
            <mxPoint x="510" y="360" as="targetPoint" />
          </mxGeometry>
        </mxCell>
        <mxCell id="obsWLM1qKGEnBxRgLEz3-23" value="CreateFBO()" style="edgeLabel;resizable=0;html=1;align=center;verticalAlign=middle;" parent="obsWLM1qKGEnBxRgLEz3-22" connectable="0" vertex="1">
          <mxGeometry relative="1" as="geometry" />
        </mxCell>
        <mxCell id="obsWLM1qKGEnBxRgLEz3-24" value="" style="endArrow=classic;html=1;rounded=0;entryX=0.2;entryY=0.514;entryDx=0;entryDy=0;entryPerimeter=0;dashed=1;" parent="1" source="7baba1c4bc27f4b0-4" target="7baba1c4bc27f4b0-19" edge="1">
          <mxGeometry relative="1" as="geometry">
            <mxPoint x="410" y="360" as="sourcePoint" />
            <mxPoint x="510" y="360" as="targetPoint" />
          </mxGeometry>
        </mxCell>
        <mxCell id="obsWLM1qKGEnBxRgLEz3-25" value="FBOPtr" style="edgeLabel;resizable=0;html=1;align=center;verticalAlign=middle;" parent="obsWLM1qKGEnBxRgLEz3-24" connectable="0" vertex="1">
          <mxGeometry relative="1" as="geometry" />
        </mxCell>
        <mxCell id="obsWLM1qKGEnBxRgLEz3-28" value="" style="endArrow=classic;html=1;rounded=0;" parent="1" edge="1">
          <mxGeometry relative="1" as="geometry">
            <mxPoint x="10" y="440" as="sourcePoint" />
            <mxPoint x="150" y="440" as="targetPoint" />
          </mxGeometry>
        </mxCell>
        <mxCell id="obsWLM1qKGEnBxRgLEz3-29" value="Update()" style="edgeLabel;resizable=0;html=1;align=center;verticalAlign=middle;" parent="obsWLM1qKGEnBxRgLEz3-28" connectable="0" vertex="1">
          <mxGeometry relative="1" as="geometry" />
        </mxCell>
        <mxCell id="obsWLM1qKGEnBxRgLEz3-32" value="" style="endArrow=classic;html=1;rounded=0;entryX=0.5;entryY=0.767;entryDx=0;entryDy=0;entryPerimeter=0;" parent="1" source="7baba1c4bc27f4b0-2" target="7baba1c4bc27f4b0-19" edge="1">
          <mxGeometry relative="1" as="geometry">
            <mxPoint x="360" y="540" as="sourcePoint" />
            <mxPoint x="670" y="410" as="targetPoint" />
          </mxGeometry>
        </mxCell>
        <mxCell id="obsWLM1qKGEnBxRgLEz3-33" value="draw()" style="edgeLabel;resizable=0;html=1;align=center;verticalAlign=middle;" parent="obsWLM1qKGEnBxRgLEz3-32" connectable="0" vertex="1">
          <mxGeometry relative="1" as="geometry" />
        </mxCell>
      </root>
    </mxGraphModel>
  </diagram>
</mxfile>
